<?xml version="1.0" encoding="UTF-8" standalone="no"?>
<!-- Generator: Adobe Illustrator 19.0.0, SVG Export Plug-In . SVG Version: 6.00 Build 0)  -->

<svg
   version="1.1"
   id="Layer_1"
   x="0px"
   y="0px"
   viewBox="0 0 110 125"
   xml:space="preserve"
   sodipodi:docname="default.svg"
   width="110"
   height="125"
   inkscape:version="1.1 (1:1.1+202105261517+ce6663b3b7)"
   inkscape:export-filename="/home/akhil/Projects/nasper/assets/default.png"
   inkscape:export-xdpi="96"
   inkscape:export-ydpi="96"
   xmlns:inkscape="http://www.inkscape.org/namespaces/inkscape"
   xmlns:sodipodi="http://sodipodi.sourceforge.net/DTD/sodipodi-0.dtd"
   xmlns="http://www.w3.org/2000/svg"
   xmlns:svg="http://www.w3.org/2000/svg"><defs
   id="defs65" /><sodipodi:namedview
   id="namedview63"
   pagecolor="#ffffff"
   bordercolor="#666666"
   borderopacity="1.0"
   inkscape:pageshadow="2"
   inkscape:pageopacity="0.0"
   inkscape:pagecheckerboard="0"
   showgrid="false"
   inkscape:zoom="1.6484375"
   inkscape:cx="38.824645"
   inkscape:cy="99.791469"
   inkscape:window-width="1848"
   inkscape:window-height="1016"
   inkscape:window-x="72"
   inkscape:window-y="27"
   inkscape:window-maximized="1"
   inkscape:current-layer="layer2" />

<g
   id="g32">
</g>
<g
   id="g34">
</g>
<g
   id="g36">
</g>
<g
   id="g38">
</g>
<g
   id="g40">
</g>
<g
   id="g42">
</g>
<g
   id="g44">
</g>
<g
   id="g46">
</g>
<g
   id="g48">
</g>
<g
   id="g50">
</g>
<g
   id="g52">
</g>
<g
   id="g54">
</g>
<g
   id="g56">
</g>
<g
   id="g58">
</g>
<g
   id="g60">
</g>
<g
   inkscape:groupmode="layer"
   id="layer2"
   inkscape:label="jpeg"
   style="display:inline"><rect
     style="opacity:0.98036;fill:#220055;fill-opacity:1;stroke-width:3.30389"
     id="rect920"
     width="110"
     height="125"
     x="0"
     y="0" /></g><g
   inkscape:groupmode="layer"
   id="layer1"
   inkscape:label="Layer 1"><g
     id="g1413"
     transform="matrix(0.99090909,0,0,1.1363636,0.50000005,0.50000005)"><path
       d="m 91.666738,16.5 c 0,-3.032305 -2.467695,-5.5 -5.5,-5.5 -3.032304,0 -5.5,2.467695 -5.5,5.5 0,3.032305 2.467696,5.5 5.5,5.5 3.032305,0 5.5,-2.467695 5.5,-5.5 z m -7.333476,0 c 0,-1.010195 0.823066,-1.833262 1.833261,-1.833262 1.010196,0 1.833262,0.823067 1.833262,1.833262 0,1.010195 -0.823066,1.833262 -1.833262,1.833262 -1.00998,0 -1.833261,-0.823067 -1.833261,-1.833262 z"
       id="path2"
       style="fill:#00d455;fill-opacity:1;stroke-width:0.214844" /><path
       d="m 20.166738,73.333262 c -1.011914,0 -1.833261,0.821347 -1.833261,1.833261 0,1.011914 0.821347,1.833262 1.833261,1.833262 h 33 C 54.178652,76.999785 55,76.178438 55,75.166523 55,74.154609 54.178652,73.333262 53.166738,73.333262 Z"
       id="path4"
       style="fill:#ffffff;stroke-width:0.214844" /><path
       d="M 77,16.5 C 77,13.467695 74.532305,11 71.5,11 68.467695,11 66,13.467695 66,16.5 c 0,3.032305 2.467695,5.5 5.5,5.5 3.032305,0 5.5,-2.467695 5.5,-5.5 z m -7.333262,0 c 0,-1.010195 0.823067,-1.833262 1.833262,-1.833262 1.010195,0 1.833262,0.823067 1.833262,1.833262 0,1.010195 -0.823067,1.833262 -1.833262,1.833262 -1.010195,0 -1.833262,-0.823067 -1.833262,-1.833262 z"
       id="path6"
       style="fill:#ffcc00;stroke-width:0.214844" /><path
       d="M 53.166738,18.333262 C 54.178652,18.333262 55,17.511914 55,16.5 55,15.488086 54.178652,14.666738 53.166738,14.666738 h -33 c -1.011914,0 -1.833261,0.821348 -1.833261,1.833262 0,1.011914 0.821347,1.833262 1.833261,1.833262 z"
       id="path8"
       style="fill:#ffffff;stroke-width:0.214844" /><path
       d="M 100.83326,0 H 9.1667383 C 4.455,0 0,4.455 0,9.1667383 V 23.833477 c 0,1.011914 0.82134766,1.833261 1.8332617,1.833261 1.0119141,0 1.8332617,-0.821347 1.8332617,-1.833261 V 9.1667383 c 0,-2.673086 2.8269141,-5.5 5.5,-5.5 H 100.83326 c 2.67309,0 5.5,2.826914 5.5,5.5 V 82.5 c 0,2.673086 -2.82691,5.5 -5.5,5.5 H 9.1667383 c -2.673086,0 -5.5,-2.826914 -5.5,-5.5 V 62.333262 H 100.83348 c 1.01191,0 1.83326,-0.821348 1.83326,-1.833262 0,-1.011914 -0.82135,-1.833262 -1.83326,-1.833262 H 1.8332617 C 0.82134766,58.666738 0,59.488086 0,60.5 v 22 c 0,4.711738 4.455,9.166738 9.1667383,9.166738 H 100.83348 C 105.545,91.666738 110,87.211738 110,82.5 V 9.1667383 C 110,4.455 105.545,0 100.83326,0 Z"
       id="path10"
       style="fill:#ffffff;stroke-width:0.214844" /><path
       d="m 1.8332617,55 c 1.0119141,0 1.8332617,-0.821348 1.8332617,-1.833262 V 33 H 100.83326 c 1.01192,0 1.83326,-0.821348 1.83326,-1.833262 0,-1.011914 -0.82134,-1.833261 -1.83326,-1.833261 H 1.8332617 C 0.82134766,29.333477 0,30.154824 0,31.166738 v 22 C 0,54.178652 0.82134766,55 1.8332617,55 Z"
       id="path12"
       style="fill:#ffffff;stroke-width:0.214844" /><path
       d="m 80.666738,75.166738 c 0,3.032305 2.467696,5.5 5.5,5.5 3.032305,0 5.5,-2.467695 5.5,-5.5 0,-3.032304 -2.467695,-5.5 -5.5,-5.5 -3.032304,0 -5.5,2.467696 -5.5,5.5 z m 7.333262,0 C 88,76.176934 87.176934,77 86.166738,77 c -1.010195,0 -1.833261,-0.823066 -1.833261,-1.833262 0,-1.010195 0.823066,-1.833261 1.833261,-1.833261 C 87.176934,73.333262 88,74.156543 88,75.166738 Z"
       id="path14"
       style="fill:#ffcc00;stroke-width:0.214844" /><path
       d="M 86.166738,102.66674 H 60.162695 c -0.553652,-1.55289 -1.776543,-2.775568 -3.329433,-3.329435 v -2.170567 c 0,-1.011914 -0.821348,-1.833261 -1.833262,-1.833261 -1.011914,0 -1.833262,0.821347 -1.833262,1.833261 v 2.170567 c -1.55289,0.553652 -2.775566,1.776545 -3.329433,3.329435 H 23.833262 C 22.821348,102.66674 22,103.48809 22,104.5 c 0,1.01191 0.821348,1.83326 1.833262,1.83326 H 49.839023 C 50.598066,108.46365 52.613086,110 55,110 c 2.386914,0 4.401934,-1.53635 5.162695,-3.66674 H 86.166738 C 87.178652,106.33326 88,105.51191 88,104.5 c 0,-1.01191 -0.821348,-1.83326 -1.833262,-1.83326 z M 55,106.33326 c -1.010195,0 -1.833262,-0.82306 -1.833262,-1.83326 0,-1.0102 0.823067,-1.83326 1.833262,-1.83326 1.010195,0 1.833262,0.82306 1.833262,1.83326 0,1.0102 -0.823067,1.83326 -1.833262,1.83326 z"
       id="path16"
       style="fill:#00d455;fill-opacity:1;stroke-width:0.214844" /><path
       d="m 20.166738,44 c -1.011914,0 -1.833261,0.821348 -1.833261,1.833262 0,1.011914 0.821347,1.833261 1.833261,1.833261 h 33 C 54.178652,47.666523 55,46.845176 55,45.833262 55,44.821348 54.178652,44 53.166738,44 Z"
       id="path18"
       style="fill:#ffffff;stroke-width:0.214844" /><path
       d="m 80.666738,45.833262 c 0,3.032304 2.467696,5.5 5.5,5.5 3.032305,0 5.5,-2.467696 5.5,-5.5 0,-3.032305 -2.467695,-5.5 -5.5,-5.5 -3.032304,0 -5.5,2.467695 -5.5,5.5 z m 7.333262,0 c 0,1.010195 -0.823066,1.833261 -1.833262,1.833261 -1.010195,0 -1.833261,-0.823066 -1.833261,-1.833261 C 84.333477,44.823066 85.156543,44 86.166738,44 87.176934,44 88,44.823066 88,45.833262 Z"
       id="path20"
       style="fill:#00d455;fill-opacity:1;stroke-width:0.214844" /><path
       d="m 66,75.166738 c 0,3.032305 2.467695,5.5 5.5,5.5 3.032305,0 5.5,-2.467695 5.5,-5.5 0,-3.032304 -2.467695,-5.5 -5.5,-5.5 -3.032305,0 -5.5,2.467696 -5.5,5.5 z m 7.333262,0 C 73.333262,76.176934 72.510195,77 71.5,77 c -1.010195,0 -1.833262,-0.823066 -1.833262,-1.833262 0,-1.010195 0.823067,-1.833261 1.833262,-1.833261 1.010195,-2.15e-4 1.833262,0.823066 1.833262,1.833261 z"
       id="path22"
       style="fill:#00d455;stroke-width:0.214844" /><path
       d="m 66,45.833262 c 0,3.032304 2.467695,5.5 5.5,5.5 3.032305,0 5.5,-2.467696 5.5,-5.5 0,-3.032305 -2.467695,-5.5 -5.5,-5.5 -3.032305,0 -5.5,2.467695 -5.5,5.5 z m 7.333262,0 c 0,1.010195 -0.823067,1.833261 -1.833262,1.833261 -1.010195,0 -1.833262,-0.823066 -1.833262,-1.833261 C 69.666738,44.823066 70.489805,44 71.5,44 c 1.010195,0 1.833262,0.823066 1.833262,1.833262 z"
       id="path24"
       style="fill:#ffcc00;stroke-width:0.214844" /></g></g></svg>
