<?xml version="1.0" encoding="UTF-8" standalone="no"?>
<!-- Created with Inkscape (http://www.inkscape.org/) -->

<svg
   width="110"
   height="110"
   viewBox="0 0 29.104166 29.104167"
   version="1.1"
   id="svg11970"
   inkscape:version="1.1 (1:1.1+202105261517+ce6663b3b7)"
   sodipodi:docname="no_internet.svg"
   inkscape:export-filename="/home/akhil/Projects/nasper/assets/no_internet.png"
   inkscape:export-xdpi="96"
   inkscape:export-ydpi="96"
   xmlns:inkscape="http://www.inkscape.org/namespaces/inkscape"
   xmlns:sodipodi="http://sodipodi.sourceforge.net/DTD/sodipodi-0.dtd"
   xmlns="http://www.w3.org/2000/svg"
   xmlns:svg="http://www.w3.org/2000/svg">
  <sodipodi:namedview
     id="namedview11972"
     pagecolor="#ffffff"
     bordercolor="#666666"
     borderopacity="1.0"
     inkscape:pageshadow="2"
     inkscape:pageopacity="0.0"
     inkscape:pagecheckerboard="0"
     inkscape:document-units="mm"
     showgrid="false"
     units="px"
     inkscape:zoom="2.7900069"
     inkscape:cx="81.003384"
     inkscape:cy="103.04634"
     inkscape:window-width="1848"
     inkscape:window-height="1016"
     inkscape:window-x="72"
     inkscape:window-y="27"
     inkscape:window-maximized="1"
     inkscape:current-layer="layer2" />
  <defs
     id="defs11967" />
  <g
     inkscape:groupmode="layer"
     id="layer2"
     inkscape:label="jpeg"
     style="display:inline">
    <rect
       style="opacity:0.98036;fill:#220055;fill-opacity:1;stroke-width:1.92553"
       id="rect12099"
       width="29.104166"
       height="29.104166"
       x="3.1789145e-07"
       y="3.1789145e-07" />
  </g>
  <g
     inkscape:label="Layer 1"
     inkscape:groupmode="layer"
     id="layer1">
    <g
       id="g12307"
       transform="translate(-78.958619,-11.494549)">
      <path
         id="path2"
         style="fill:#ffffff;stroke-width:0.433361"
         d="m 93.393235,13.361518 c -0.0674,0 -0.132001,0.002 -0.197922,0.0041 l -0.254249,0.0067 -5.15e-4,5.17e-4 c -3.574471,0.122375 -6.788394,1.683359 -9.082133,4.121712 -0.002,0.0021 -0.0037,0.003 -0.0057,0.0057 0,0 -8.4e-5,5.66e-4 -5.16e-4,10e-4 -2.202505,2.343929 -3.555854,5.49442 -3.555854,8.957076 0,3.328067 1.250513,6.368322 3.30264,8.681125 0.003,0.0039 0.0026,0.0081 0.0057,0.0124 0.0081,0.01124 0.01983,0.01703 0.02842,0.02739 2.305925,2.577907 5.614593,4.238646 9.306925,4.365107 l 5.16e-4,5.18e-4 0.254248,0.0067 c 0.0674,0.0016 0.132533,0.0036 0.198954,0.0036 0.0674,0 0.13195,-0.0017 0.197921,-0.0041 l 0.254246,-0.0067 5.19e-4,-5.16e-4 c 3.69638,-0.126918 7.008765,-1.790568 9.314675,-4.373893 0.006,-0.0075 0.015,-0.0096 0.0202,-0.01809 0.003,-0.0035 0.003,-0.0082 0.006,-0.0124 h 0.001 c 2.05209,-2.3128 3.30212,-5.353058 3.30212,-8.681125 0,-3.462658 -1.35275,-6.61318 -3.55482,-8.957593 v -5.16e-4 c -0.002,-0.0026 -0.004,-0.0035 -0.006,-0.0057 -2.29368,-2.438364 -5.507163,-3.999337 -9.081623,-4.121712 l -5.16e-4,-5.17e-4 -0.255281,-0.0067 c -0.067,-0.0021 -0.132077,-0.0041 -0.198437,-0.0041 z m -2.183331,1.604553 c -1.219057,1.280246 -2.219764,2.728848 -2.96881,4.298446 -0.99068,-0.341895 -1.946527,-0.783667 -2.857191,-1.321366 1.590114,-1.496731 3.596352,-2.554444 5.826001,-2.97708 z m 4.367694,0 c 2.229596,0.422636 4.235534,1.480349 5.826002,2.97708 -0.91096,0.537699 -1.867098,0.979471 -2.857708,1.321366 -0.749115,-1.569579 -1.749563,-3.018212 -2.968294,-4.298446 z m -2.635499,0.0863 v 5.066357 c -1.208773,-0.03436 -2.396739,-0.205505 -3.549137,-0.506429 0.867781,-1.712441 2.065007,-3.261051 3.549137,-4.559928 z m 0.903303,5.17e-4 c 1.483866,1.298778 2.680947,2.847181 3.548621,4.559411 -1.152342,0.300933 -2.339792,0.472139 -3.548621,0.506429 z m -9.172048,3.614766 c 0.992571,0.6455 2.04492,1.171245 3.139858,1.578198 -0.724979,1.811681 -1.127741,3.75789 -1.181322,5.760889 h -4.927349 c 0.107635,-2.812803 1.210535,-5.37365 2.968813,-7.339087 z m 17.440276,0 c 1.75827,1.965437 2.86118,4.526285 2.96881,7.339087 h -4.92734 c -0.054,-2.00297 -0.455937,-3.94923 -1.180811,-5.760889 1.094881,-0.406945 2.146821,-0.932731 3.139341,-1.578198 z m -13.186273,1.951302 c 1.296976,0.37581 2.643343,0.584007 4.014742,0.622184 v 4.765601 h -5.16971 c 0.05531,-1.877885 0.450424,-3.698742 1.154968,-5.387785 z m 8.932788,0 c 0.704553,1.689043 1.099643,3.5099 1.154967,5.387785 h -5.16971 v -4.766117 c 1.371219,-0.03822 2.717501,-0.245474 4.014743,-0.621668 z m -16.155604,6.291089 h 4.927349 c 0.04968,1.865095 0.4069,3.678343 1.040762,5.382101 -1.131176,0.433398 -2.215623,0.994545 -3.235978,1.684134 -1.620158,-1.927178 -2.629453,-4.382101 -2.732133,-7.066235 z m 6.067848,0 h 5.16971 v 4.332552 c -1.426853,0.03954 -2.824927,0.262787 -4.168738,0.667144 -0.607623,-1.57847 -0.95014,-3.264374 -1.000972,-4.999696 z m 6.073013,0 h 5.169194 c -0.05086,1.735322 -0.393427,3.421311 -1.00149,5.000212 -1.343208,-0.404739 -2.741041,-0.627571 -4.167704,-0.667144 z m 6.309698,0 h 4.92734 c -0.10267,2.684134 -1.11154,5.139057 -2.73213,7.066235 -1.02035,-0.689589 -2.1048,-1.250736 -3.235979,-1.684134 0.634201,-1.703758 0.991049,-3.517006 1.040769,-5.382101 z m -7.213001,5.436362 v 5.518009 c -1.599049,-1.399521 -2.863093,-3.088899 -3.742925,-4.959905 1.211712,-0.333515 2.465234,-0.521944 3.742925,-0.558104 z m 0.903303,0 c 1.277882,0.03578 2.53097,0.224811 3.742926,0.558104 -0.879737,1.871101 -2.144213,3.560011 -3.742926,4.959387 z m -5.777425,0.915704 c 0.766413,1.718146 1.824582,3.302902 3.141927,4.688604 -2.365066,-0.448283 -4.479814,-1.609592 -6.112288,-3.253033 0.943824,-0.585044 1.937655,-1.064771 2.970361,-1.435571 z m 10.651029,0 c 1.032791,0.370835 2.026284,0.850974 2.970364,1.43609 -1.63233,1.643184 -3.747027,2.804186 -6.111772,3.252514 1.317127,-1.385284 2.37504,-2.970281 3.141408,-4.688604 z" />
      <rect
         style="opacity:0.98036;fill:#ff0000;stroke-width:0.910695"
         id="rect976"
         width="41.010418"
         height="1.3135512"
         x="26.824915"
         y="84.09108"
         transform="rotate(-45)" />
    </g>
  </g>
</svg>
